<svg width="181" height="200" viewBox="0 0 181 200" fill="none" xmlns="http://www.w3.org/2000/svg">
<g clip-path="url(#clip0_1_153)">
<path d="M180.611 128.564L168.266 120.426V129.72L180.611 133.16V128.564Z" fill="#A50E0E"/>
<path d="M0 128.564L12.346 120.426V129.72L0 133.16V128.564Z" fill="#A50E0E"/>
<path d="M12.346 50V150L90.306 200L168.266 150V50L90.306 0L12.346 50Z" fill="#ECB20C"/>
<path d="M62.001 82.737L90.306 21.565V0L12.346 50L62.001 82.737Z" fill="url(#paint0_linear_1_153)"/>
<path d="M127.188 120.426L90.306 178.435V200L168.266 150L151.453 139.217L127.188 120.426Z" fill="url(#paint1_linear_1_153)"/>
<path d="M88.958 152.825L29.158 139.217L12.346 150L90.306 200V178.435L88.958 152.825Z" fill="url(#paint2_linear_1_153)"/>
<path d="M91.638 48.085L151.453 60.783L168.266 50L90.306 0V21.565L91.638 48.085Z" fill="url(#paint3_linear_1_153)"/>
<path d="M64.696 117.781L31.682 62.544L12.346 50V150L29.158 139.217L64.696 117.781Z" fill="url(#paint4_linear_1_153)"/>
<path d="M115.915 117.781L148.929 62.544L168.266 50V150L151.453 139.217L115.915 117.781Z" fill="url(#paint5_linear_1_153)"/>
<path d="M29.158 60.783V139.217L90.306 178.435L151.453 139.217V60.783L90.306 21.565L29.158 60.783Z" fill="url(#paint6_linear_1_153)"/>
<path d="M58.484 155.521H7.766C3.477 155.521 0 152.044 0 147.755V127.999H50.089C54.725 127.999 58.484 131.757 58.484 136.394V155.521Z" fill="url(#paint7_linear_1_153)"/>
<path d="M172.845 157.241H122.127V138.114C122.127 133.478 125.885 129.719 130.522 129.719H180.611V149.475C180.611 153.764 177.134 157.241 172.845 157.241Z" fill="url(#paint8_linear_1_153)"/>
<path d="M137.688 171.002H42.923C40.592 171.002 38.703 169.112 38.703 166.782V137.38C38.703 135.049 40.593 133.16 42.923 133.16H137.689C140.02 133.16 141.909 135.05 141.909 137.38V166.782C141.909 169.113 140.019 171.002 137.688 171.002Z" fill="url(#paint9_linear_1_153)"/>
<path d="M90.306 179.603C105.506 179.603 117.828 167.281 117.828 152.081C117.828 136.881 105.506 124.559 90.306 124.559C75.106 124.559 62.784 136.881 62.784 152.081C62.784 167.281 75.106 179.603 90.306 179.603Z" fill="#F6F6F8"/>
<path d="M90.306 174.391C102.627 174.391 112.616 164.402 112.616 152.081C112.616 139.76 102.627 129.771 90.306 129.771C77.9845 129.771 67.996 139.76 67.996 152.081C67.996 164.402 77.9845 174.391 90.306 174.391Z" fill="#FFE066"/>
<path d="M90.306 135.417L95.72 146.388L107.828 148.147L99.067 156.687L101.135 168.745L90.306 163.052L79.476 168.745L81.545 156.687L72.784 148.147L84.891 146.388L90.306 135.417Z" fill="#FCC11A"/>
<path d="M90.306 135.417L91.01 151.728L95.72 146.388L101.774 147.267L107.828 148.147L91.01 151.728L99.067 156.687L100.101 162.716L101.135 168.745L91.01 151.728L90.306 163.052L84.891 165.899L79.476 168.745L91.01 151.728L81.545 156.687L77.164 152.417L72.784 148.147L91.01 151.728L84.891 146.388L87.598 140.902L90.306 135.417Z" fill="#F38B00"/>
<path d="M73.034 100.582H84.646V69.494H74.577V61.409C80.458 60.307 84.278 58.837 88.1 56.485H97.728V100.583H107.576V111.168H73.034V100.582Z" fill="#F28500"/>
<path d="M45.979 61.053L47.454 55.152C47.643 54.395 48.035 53.703 48.587 53.151C49.139 52.599 49.831 52.207 50.588 52.018L56.489 50.543C56.648 50.503 56.648 50.277 56.489 50.238L50.588 48.763C49.831 48.574 49.139 48.182 48.587 47.63C48.035 47.078 47.643 46.386 47.454 45.629L45.979 39.728C45.939 39.569 45.713 39.569 45.674 39.728L44.199 45.629C44.01 46.386 43.618 47.078 43.066 47.63C42.514 48.182 41.822 48.574 41.065 48.763L35.164 50.238C35.005 50.278 35.005 50.504 35.164 50.543L41.065 52.018C41.822 52.207 42.514 52.599 43.066 53.151C43.618 53.703 44.01 54.395 44.199 55.152L45.674 61.053C45.714 61.212 45.94 61.212 45.979 61.053Z" fill="white"/>
<path d="M151.073 125.779L152.179 121.353C152.321 120.785 152.615 120.266 153.029 119.852C153.443 119.438 153.962 119.144 154.53 119.002L158.956 117.895C159.075 117.865 159.075 117.696 158.956 117.666L154.53 116.559C153.962 116.417 153.443 116.123 153.029 115.709C152.615 115.295 152.321 114.776 152.179 114.208L151.073 109.782C151.043 109.663 150.874 109.663 150.844 109.782L149.738 114.208C149.596 114.776 149.302 115.295 148.888 115.709C148.474 116.123 147.955 116.417 147.387 116.559L142.961 117.666C142.842 117.696 142.842 117.865 142.961 117.895L147.387 119.002C147.955 119.144 148.474 119.438 148.888 119.852C149.302 120.266 149.596 120.785 149.738 121.353L150.844 125.779C150.874 125.898 151.043 125.898 151.073 125.779Z" fill="white"/>
</g>
<defs>
<linearGradient id="paint0_linear_1_153" x1="51.5722" y1="25.3048" x2="63.1943" y2="39.6652" gradientUnits="userSpaceOnUse">
<stop stop-color="#FFE622"/>
<stop offset="1" stop-color="#FCC523"/>
</linearGradient>
<linearGradient id="paint1_linear_1_153" x1="126.877" y1="171.56" x2="118.483" y2="158.67" gradientUnits="userSpaceOnUse">
<stop stop-color="#FFE622"/>
<stop offset="1" stop-color="#FCC523"/>
</linearGradient>
<linearGradient id="paint2_linear_1_153" x1="50.2692" y1="176.114" x2="64.2516" y2="161.366" gradientUnits="userSpaceOnUse">
<stop stop-color="#F38600"/>
<stop offset="1" stop-color="#EDA416"/>
</linearGradient>
<linearGradient id="paint3_linear_1_153" x1="130.03" y1="24.252" x2="116.045" y2="39.1811" gradientUnits="userSpaceOnUse">
<stop stop-color="#F38600"/>
<stop offset="1" stop-color="#EDA416"/>
</linearGradient>
<linearGradient id="paint4_linear_1_153" x1="12.3456" y1="100" x2="31.6044" y2="100" gradientUnits="userSpaceOnUse">
<stop stop-color="#EDB516"/>
<stop offset="1" stop-color="#FCC616"/>
</linearGradient>
<linearGradient id="paint5_linear_1_153" x1="168.266" y1="100" x2="149.007" y2="100" gradientUnits="userSpaceOnUse">
<stop stop-color="#EDB516"/>
<stop offset="1" stop-color="#FCC616"/>
</linearGradient>
<linearGradient id="paint6_linear_1_153" x1="90.3056" y1="178.435" x2="90.3056" y2="21.5653" gradientUnits="userSpaceOnUse">
<stop stop-color="#FFD12D"/>
<stop offset="1" stop-color="#FCED6F"/>
</linearGradient>
<linearGradient id="paint7_linear_1_153" x1="0" y1="141.76" x2="58.4836" y2="141.76" gradientUnits="userSpaceOnUse">
<stop stop-color="#BE4244"/>
<stop offset="1" stop-color="#D33730"/>
</linearGradient>
<linearGradient id="paint8_linear_1_153" x1="122.128" y1="143.48" x2="180.611" y2="143.48" gradientUnits="userSpaceOnUse">
<stop stop-color="#BE4244"/>
<stop offset="1" stop-color="#D33730"/>
</linearGradient>
<linearGradient id="paint9_linear_1_153" x1="90.3056" y1="171.002" x2="90.3056" y2="133.16" gradientUnits="userSpaceOnUse">
<stop stop-color="#FF544A"/>
<stop offset="1" stop-color="#F7726E"/>
</linearGradient>
<clipPath id="clip0_1_153">
<rect width="180.611" height="200" fill="white"/>
</clipPath>
</defs>
</svg>
